<svg width="646" height="486" viewBox="0 0 646 486" fill="none" xmlns="http://www.w3.org/2000/svg">
<g clip-path="url(#clip0_1_2)">
<path d="M110.089 476.277C107.156 479.645 104.006 482.035 100.693 483.501C97.3257 484.968 93.2523 485.674 88.5273 485.674C82.2272 485.674 77.2849 484.316 73.646 481.709C70.0072 479.047 67.6718 474.538 66.5855 468.129L63.6527 451.887C62.2407 443.956 60.557 438.144 58.5475 434.45C56.538 430.702 53.225 428.855 48.5542 428.855H38.0178V466.228C38.0178 470.356 38.2894 473.343 38.8868 475.136C39.4843 476.983 40.5705 478.232 42.1998 478.884C43.8291 479.536 46.4904 479.97 50.1292 480.188V483.447C44.2636 483.121 36.117 482.958 25.6349 482.958C14.0666 482.958 5.48543 483.121 0 483.447V480.188C3.58454 479.97 6.19148 479.536 7.87513 478.884C9.55877 478.232 10.6993 476.983 11.2967 475.136C11.8942 473.289 12.22 470.302 12.22 466.228V385.671C12.22 381.543 11.8942 378.555 11.2967 376.763C10.6993 374.97 9.55877 373.666 7.87513 373.015C6.19148 372.363 3.58454 371.928 0 371.711V368.452C5.53974 368.778 13.7407 368.941 24.6573 368.941L42.6886 368.778C44.8611 368.669 47.3594 368.615 50.1836 368.615C65.1191 368.615 76.3616 371.059 83.9108 375.948C91.4058 380.837 95.2076 387.79 95.2076 396.915C95.2076 404.629 92.3834 411.364 86.735 417.231C81.0866 423.098 71.7994 426.737 58.819 428.258C68.5408 429.127 75.8185 431.246 80.5978 434.613C85.3772 437.981 88.473 442.979 89.8308 449.714L93.5782 466.445C94.4472 470.79 95.4248 473.832 96.5653 475.516C97.7059 477.254 99.2809 478.124 101.345 478.124C102.648 478.015 103.734 477.689 104.658 477.146C105.581 476.603 106.613 475.679 107.808 474.376L110.089 476.331V476.277ZM41.6567 372.797C40.2989 373.558 39.3756 374.916 38.8325 376.871C38.2894 378.827 38.0178 381.76 38.0178 385.671V425.651H45.024C53.8767 425.651 59.9596 423.315 63.2726 418.589C66.5855 413.863 68.2149 407.236 68.2149 398.708C68.2149 390.18 66.6399 383.118 63.4898 378.555C60.3398 373.992 55.1802 371.711 48.0654 371.711C45.1326 371.711 43.0145 372.091 41.6567 372.852V372.797Z" fill="#29344F"/>
<path d="M181.888 407.834C188.949 414.95 192.425 426.139 192.425 441.566C192.425 456.993 188.894 468.129 181.888 475.19C174.828 482.252 165.106 485.728 152.669 485.728C140.232 485.728 130.618 482.198 123.504 475.19C116.389 468.183 112.859 456.939 112.859 441.566C112.859 426.194 116.389 414.95 123.504 407.834C130.618 400.772 140.286 397.187 152.669 397.187C165.052 397.187 174.882 400.718 181.888 407.834ZM141.535 410.604C138.765 417.394 137.407 427.66 137.407 441.566C137.407 455.472 138.765 465.739 141.535 472.42C144.305 479.156 147.998 482.469 152.669 482.469C157.34 482.469 161.141 479.156 163.857 472.474C166.572 465.793 167.93 455.527 167.93 441.512C167.93 427.497 166.572 417.177 163.803 410.495C161.033 403.76 157.34 400.446 152.669 400.446C147.998 400.446 144.305 403.814 141.535 410.604Z" fill="#29344F"/>
<path d="M279.485 407.997C284.917 415.221 287.632 425.596 287.632 439.285C287.632 455.201 284.156 466.934 277.259 474.43C270.361 481.926 261.4 485.728 250.483 485.728C242.988 485.728 236.96 483.827 232.289 480.025C228.379 479.699 224.523 480.133 220.612 481.328C216.702 482.524 213.606 484.099 211.325 486.054L208.881 484.588C209.641 481.872 210.021 478.83 210.021 475.516V375.948C210.021 370.95 209.207 367.365 207.686 365.084C206.111 362.802 203.45 361.662 199.648 361.662V358.24C203.015 358.566 206.383 358.729 209.696 358.729C219.091 358.729 227.021 357.968 233.43 356.447V412.614C235.711 407.616 239.024 403.814 243.314 401.152C247.659 398.491 252.601 397.187 258.25 397.187C266.994 397.187 274.109 400.772 279.54 407.997H279.485ZM258.684 472.257C261.617 465.521 263.084 455.309 263.084 441.566C263.084 427.823 261.834 418.698 259.336 412.885C256.838 407.073 253.253 404.194 248.637 404.194C245.161 404.194 242.011 405.444 239.132 407.997C236.254 410.55 234.353 413.972 233.375 418.317V477.906C236.96 480.84 240.979 482.306 245.378 482.306C251.352 482.306 255.752 478.938 258.684 472.257Z" fill="#29344F"/>
<path d="M331.461 468.292C331.461 472.746 332.222 475.788 333.797 477.472C335.372 479.156 338.033 479.97 341.835 479.97V483.393C331.027 482.958 323.803 482.741 320.219 482.741C316.852 482.741 309.357 482.958 297.625 483.393V479.97C301.536 479.97 304.251 479.156 305.772 477.472C307.293 475.788 308.053 472.746 308.053 468.292V417.122C308.053 412.125 307.293 408.54 305.772 406.258C304.251 403.977 301.536 402.836 297.625 402.836V399.414C301.101 399.74 304.469 399.903 307.673 399.903C317.286 399.903 325.216 399.142 331.407 397.622V468.292H331.461ZM329.615 360.847C332.276 363.074 333.579 366.116 333.579 370.027C333.579 373.938 332.276 376.98 329.615 379.207C326.954 381.434 323.369 382.521 318.807 382.521C314.245 382.521 310.66 381.434 307.999 379.207C305.338 376.98 304.034 373.938 304.034 370.027C304.034 366.116 305.338 363.074 307.999 360.847C310.66 358.62 314.245 357.533 318.807 357.533C323.369 357.533 326.954 358.62 329.615 360.847Z" fill="#29344F"/>
<path d="M427.103 403.488C428.95 405.552 430.253 408.214 431.014 411.419C431.774 414.678 432.154 419.078 432.154 424.564V468.237C432.154 472.692 432.915 475.734 434.49 477.417C436.065 479.101 438.726 479.916 442.528 479.916V483.338C431.72 482.904 424.551 482.686 421.075 482.686C417.816 482.686 410.81 482.904 399.948 483.338V479.916C403.206 479.916 405.488 479.101 406.791 477.417C408.094 475.734 408.746 472.692 408.746 468.237V417.72C408.746 413.266 408.04 409.952 406.574 407.671C405.107 405.389 402.5 404.249 398.699 404.249C394.245 404.249 390.443 406.041 387.348 409.681C384.252 413.32 382.622 417.774 382.622 423.098V468.237C382.622 472.692 383.274 475.734 384.578 477.417C385.881 479.101 388.162 479.916 391.421 479.916V483.338C381.482 482.904 374.747 482.686 371.271 482.686C368.013 482.686 360.572 482.904 348.841 483.338V479.916C352.751 479.916 355.467 479.101 356.988 477.417C358.508 475.734 359.269 472.692 359.269 468.237V417.068C359.269 412.071 358.508 408.486 356.988 406.204C355.467 403.923 352.751 402.782 348.841 402.782V399.36C352.317 399.686 355.684 399.849 358.889 399.849C368.502 399.849 376.431 399.088 382.622 397.567V412.179C387.51 402.13 396.363 397.078 409.235 397.078C417.436 397.078 423.41 399.197 427.103 403.434V403.488Z" fill="#29344F"/>
<path d="M580.207 477.58C582.053 479.21 583.846 480.079 585.584 480.188V483.447C579.066 483.121 570.865 482.958 560.926 482.958C549.901 482.958 541.646 483.121 536.269 483.447V480.188C540.397 479.97 543.275 479.482 545.013 478.667C546.751 477.852 547.62 476.44 547.62 474.376C547.62 472.42 546.968 469.813 545.665 466.608L535.943 439.991H500.532L496.296 451.181C493.254 459.003 491.734 464.978 491.734 469.215C491.734 473.235 492.929 476.005 495.373 477.58C497.817 479.156 501.401 480.025 506.181 480.242V483.501C498.794 483.175 492.114 483.012 486.031 483.012C481.034 483.012 476.961 483.175 473.702 483.501V480.242C479.025 479.264 483.641 473.561 487.66 463.186L524.701 368.18C525.895 368.289 527.796 368.343 530.403 368.343C533.01 368.343 534.857 368.343 535.943 368.18L575.427 469.867C576.839 473.452 578.469 476.059 580.315 477.689L580.207 477.58ZM534.748 436.623L518.672 392.787L501.781 436.623H534.748Z" fill="#29344F"/>
<path d="M645 371.657C641.307 371.874 638.646 372.308 637.071 372.96C635.441 373.612 634.355 374.862 633.758 376.708C633.16 378.555 632.889 381.543 632.889 385.617V466.173C632.889 470.302 633.16 473.289 633.758 475.082C634.355 476.929 635.441 478.178 637.071 478.83C638.7 479.482 641.361 479.916 645 480.133V483.393C639.134 483.067 630.988 482.904 620.506 482.904C608.937 482.904 600.356 483.067 594.871 483.393V480.133C598.455 479.916 601.062 479.482 602.746 478.83C604.43 478.178 605.57 476.929 606.167 475.082C606.765 473.235 607.036 470.247 607.036 466.173V385.617C607.036 381.489 606.765 378.501 606.167 376.708C605.57 374.916 604.43 373.612 602.746 372.96C601.062 372.308 598.455 371.874 594.871 371.657V368.397C600.41 368.723 608.937 368.886 620.506 368.886C630.988 368.886 639.189 368.723 645 368.397V371.657Z" fill="#29344F"/>
<path fill-rule="evenodd" clip-rule="evenodd" d="M535.834 -9.64575e-06C493.091 -1.03209 453.281 43.6732 453.281 43.6732L203.341 150.846C203.341 150.846 278.671 200.929 362.201 198.539C445.732 196.529 529.263 142.427 529.263 142.427C515.468 155.192 500.315 166.599 484.565 176.703C458.278 193.487 419.445 216.356 370.457 219.398C332.004 222.44 293.498 216.356 257.652 201.581C233.321 193.161 225.12 196.529 225.12 196.529C225.12 196.529 25.2004 294.305 16.9451 298.325C8.74408 302.344 10.6993 318.152 20.9098 312.774C31.4462 307.722 140.286 261.007 160.653 253.62C181.019 246.232 211.651 245.2 264.55 268.069C304.034 283.17 345.474 292.621 387.565 296.315L406.954 324.561H425.365C425.365 324.561 420.423 318.152 413.2 310.112C405.976 301.693 415.155 291.318 415.155 291.318C415.155 291.318 536.16 255.032 577.926 211.359C619.691 167.685 605.57 114.615 604.212 91.7463C602.257 66.8678 645 52.0928 645 52.0928L605.19 33.2981C587.484 12.7652 562.501 1.03207 535.834 -9.64575e-06ZM571.68 57.1445C563.479 57.4704 556.527 50.7348 556.527 42.6954C556.527 33.9499 563.424 27.2143 571.68 27.2143C579.935 27.2143 586.833 34.2758 586.833 42.6954C586.507 51.115 579.935 57.4704 571.68 57.1445Z" fill="#29344F"/>
</g>
<defs>
<clipPath id="clip0_1_2">
<rect width="645" height="486" fill="white"/>
</clipPath>
</defs>
</svg>
