<svg width="646" height="99" viewBox="0 0 646 99" fill="none" xmlns="http://www.w3.org/2000/svg">
<g clip-path="url(#clip0_1_44)">
<path d="M285.975 92.5794C284.04 94.8033 281.961 96.3815 279.774 97.35C277.552 98.3185 274.864 98.7848 271.745 98.7848C267.587 98.7848 264.326 97.888 261.924 96.1663C259.523 94.4087 257.981 91.4315 257.264 87.1989L255.329 76.4739C254.397 71.237 253.286 67.3989 251.96 64.9598C250.633 62.4848 248.447 61.2652 245.364 61.2652H238.411V85.9435C238.411 88.6696 238.59 90.6424 238.984 91.8261C239.378 93.0457 240.095 93.8707 241.171 94.3011C242.246 94.7315 244.002 95.0185 246.404 95.162V97.3141C242.533 97.0989 237.156 96.9913 230.238 96.9913C222.604 96.9913 216.94 97.0989 213.32 97.3141V95.162C215.686 95.0185 217.406 94.7315 218.517 94.3011C219.629 93.8707 220.381 93.0457 220.776 91.8261C221.17 90.6065 221.385 88.6337 221.385 85.9435V32.7489C221.385 30.0228 221.17 28.05 220.776 26.8663C220.381 25.6826 219.629 24.8217 218.517 24.3913C217.406 23.9609 215.686 23.6739 213.32 23.5304V21.3783C216.976 21.5935 222.389 21.7011 229.593 21.7011L241.493 21.5935C242.927 21.5217 244.576 21.4859 246.44 21.4859C256.297 21.4859 263.716 23.1 268.699 26.3283C273.645 29.5565 276.154 34.1478 276.154 40.1739C276.154 45.2674 274.29 49.7152 270.562 53.5891C266.835 57.463 260.705 59.8663 252.139 60.8707C258.555 61.4446 263.358 62.8435 266.512 65.0674C269.666 67.2913 271.709 70.5913 272.606 75.0391L275.079 86.087C275.652 88.9565 276.297 90.9652 277.05 92.0772C277.803 93.225 278.842 93.7989 280.204 93.7989C281.065 93.7272 281.782 93.512 282.391 93.1533C283 92.7946 283.681 92.1848 284.47 91.3239L285.975 92.6152V92.5794ZM240.812 24.2478C239.916 24.75 239.307 25.6467 238.948 26.938C238.59 28.2294 238.411 30.1663 238.411 32.7489V59.1489H243.034C248.877 59.1489 252.892 57.6065 255.078 54.4859C257.264 51.3652 258.34 46.9891 258.34 41.3576C258.34 35.7261 257.3 31.063 255.221 28.05C253.142 25.037 249.737 23.5304 245.042 23.5304C243.106 23.5304 241.708 23.7815 240.812 24.2837V24.2478Z" fill="#29344F"/>
<path d="M333.361 47.3478C338.02 52.0467 340.314 59.4359 340.314 69.6228C340.314 79.8098 337.985 87.163 333.361 91.8261C328.701 96.4891 322.285 98.7848 314.077 98.7848C305.869 98.7848 299.524 96.4533 294.829 91.8261C290.133 87.1989 287.803 79.7739 287.803 69.6228C287.803 59.4717 290.133 52.0467 294.829 47.3478C299.524 42.6848 305.904 40.3174 314.077 40.3174C322.249 40.3174 328.737 42.6489 333.361 47.3478ZM306.729 49.1772C304.901 53.6609 304.005 60.4402 304.005 69.6228C304.005 78.8054 304.901 85.5848 306.729 89.9967C308.557 94.4446 310.994 96.6326 314.077 96.6326C317.159 96.6326 319.668 94.4446 321.461 90.0326C323.253 85.6206 324.149 78.8413 324.149 69.5869C324.149 60.3326 323.253 53.5174 321.425 49.1054C319.597 44.6576 317.159 42.4696 314.077 42.4696C310.994 42.4696 308.557 44.6935 306.729 49.1772Z" fill="#29344F"/>
<path d="M397.772 47.4554C401.356 52.2261 403.148 59.0772 403.148 68.1163C403.148 78.6261 400.854 86.3739 396.302 91.3239C391.75 96.2739 385.836 98.7848 378.631 98.7848C373.685 98.7848 369.706 97.5294 366.624 95.0185C364.043 94.8033 361.498 95.0902 358.917 95.8794C356.336 96.6685 354.293 97.7087 352.788 99L351.175 98.0315C351.677 96.238 351.928 94.2294 351.928 92.0413V26.2924C351.928 22.9924 351.39 20.625 350.386 19.1185C349.347 17.612 347.591 16.8587 345.082 16.8587V14.5989C347.304 14.8141 349.526 14.9217 351.713 14.9217C357.914 14.9217 363.147 14.4196 367.376 13.4152V50.5044C368.882 47.2044 371.068 44.6935 373.9 42.9359C376.767 41.1783 380.029 40.3174 383.757 40.3174C389.528 40.3174 394.223 42.6848 397.808 47.4554H397.772ZM384.044 89.8891C385.979 85.4413 386.947 78.6978 386.947 69.6228C386.947 60.5478 386.123 54.5217 384.474 50.6837C382.825 46.8457 380.459 44.9446 377.413 44.9446C375.119 44.9446 373.04 45.7696 371.14 47.4554C369.24 49.1413 367.986 51.4011 367.34 54.2707V93.6196C369.706 95.5565 372.359 96.525 375.262 96.525C379.205 96.525 382.108 94.3011 384.044 89.8891Z" fill="#29344F"/>
<path d="M432.038 87.3065C432.038 90.2478 432.54 92.2565 433.58 93.3685C434.619 94.4804 436.375 95.0185 438.885 95.0185V97.2783C431.752 96.9913 426.984 96.8478 424.619 96.8478C422.396 96.8478 417.45 96.9913 409.708 97.2783V95.0185C412.289 95.0185 414.081 94.4804 415.084 93.3685C416.088 92.2565 416.59 90.2478 416.59 87.3065V53.5174C416.59 50.2174 416.088 47.85 415.084 46.3435C414.081 44.837 412.289 44.0837 409.708 44.0837V41.8239C412.002 42.0391 414.224 42.1467 416.339 42.1467C422.683 42.1467 427.916 41.6446 432.003 40.6402V87.3065H432.038ZM430.82 16.3565C432.576 17.8272 433.436 19.8359 433.436 22.4185C433.436 25.0011 432.576 27.0098 430.82 28.4804C429.063 29.9511 426.698 30.6685 423.687 30.6685C420.676 30.6685 418.31 29.9511 416.554 28.4804C414.798 27.0098 413.937 25.0011 413.937 22.4185C413.937 19.8359 414.798 17.8272 416.554 16.3565C418.31 14.8859 420.676 14.1685 423.687 14.1685C426.698 14.1685 429.063 14.8859 430.82 16.3565Z" fill="#29344F"/>
<path d="M495.195 44.5141C496.414 45.8772 497.274 47.6348 497.776 49.7511C498.278 51.9033 498.528 54.8087 498.528 58.4315V87.2707C498.528 90.212 499.03 92.2207 500.07 93.3326C501.109 94.4446 502.866 94.9826 505.375 94.9826V97.2424C498.242 96.9554 493.51 96.812 491.216 96.812C489.066 96.812 484.442 96.9554 477.273 97.2424V94.9826C479.424 94.9826 480.929 94.4446 481.789 93.3326C482.65 92.2207 483.08 90.212 483.08 87.2707V53.912C483.08 50.9707 482.614 48.7826 481.646 47.2761C480.678 45.7696 478.958 45.0163 476.449 45.0163C473.51 45.0163 471.001 46.2 468.957 48.6033C466.914 51.0065 465.839 53.9478 465.839 57.463V87.2707C465.839 90.212 466.269 92.2207 467.129 93.3326C467.99 94.4446 469.495 94.9826 471.646 94.9826V97.2424C465.086 96.9554 460.642 96.812 458.348 96.812C456.197 96.812 451.286 96.9554 443.544 97.2424V94.9826C446.125 94.9826 447.917 94.4446 448.921 93.3326C449.924 92.2207 450.426 90.212 450.426 87.2707V53.4815C450.426 50.1815 449.924 47.8141 448.921 46.3076C447.917 44.8011 446.125 44.0478 443.544 44.0478V41.788C445.838 42.0033 448.061 42.1109 450.175 42.1109C456.52 42.1109 461.753 41.6087 465.839 40.6044V50.2533C469.065 43.6174 474.907 40.2815 483.402 40.2815C488.815 40.2815 492.758 41.6804 495.195 44.4783V44.5141Z" fill="#29344F"/>
<path d="M596.238 93.4044C597.457 94.4805 598.64 95.0544 599.787 95.1261V97.2783C595.486 97.0631 590.073 96.9555 583.514 96.9555C576.238 96.9555 570.789 97.0631 567.241 97.2783V95.1261C569.965 94.9826 571.865 94.6598 573.012 94.1218C574.159 93.5837 574.732 92.6511 574.732 91.2881C574.732 89.9968 574.302 88.275 573.442 86.1587L567.026 68.5826H543.656L540.86 75.9718C538.853 81.137 537.849 85.0826 537.849 87.8804C537.849 90.5348 538.638 92.3641 540.251 93.4044C541.864 94.4446 544.229 95.0185 547.383 95.162V97.3141C542.509 97.0989 538.1 96.9913 534.085 96.9913C530.788 96.9913 528.1 97.0989 525.949 97.3141V95.162C529.462 94.5163 532.508 90.75 535.161 83.8989L559.606 21.1631C560.395 21.2348 561.649 21.2707 563.37 21.2707C565.09 21.2707 566.309 21.2707 567.026 21.1631L593.084 88.3109C594.016 90.6783 595.091 92.4 596.31 93.4761L596.238 93.4044ZM566.237 66.3587L555.628 37.412L544.48 66.3587H566.237Z" fill="#29344F"/>
<path d="M639 23.4946C636.563 23.6381 634.806 23.925 633.767 24.3555C632.692 24.7859 631.975 25.6109 631.58 26.8305C631.186 28.05 631.007 30.0228 631.007 32.7131V85.9076C631.007 88.6337 631.186 90.6065 631.58 91.7902C631.975 93.0098 632.692 93.8348 633.767 94.2652C634.842 94.6957 636.599 94.9826 639 95.1261V97.2783C635.129 97.0631 629.752 96.9555 622.834 96.9555C615.2 96.9555 609.536 97.0631 605.916 97.2783V95.1261C608.282 94.9826 610.002 94.6957 611.114 94.2652C612.225 93.8348 612.977 93.0098 613.372 91.7902C613.766 90.5707 613.945 88.5978 613.945 85.9076V32.7131C613.945 29.987 613.766 28.0141 613.372 26.8305C612.977 25.6468 612.225 24.7859 611.114 24.3555C610.002 23.925 608.282 23.6381 605.916 23.4946V21.3424C609.572 21.5576 615.2 21.6652 622.834 21.6652C629.752 21.6652 635.165 21.5576 639 21.3424V23.4946Z" fill="#29344F"/>
<path fill-rule="evenodd" clip-rule="evenodd" d="M156.472 3.89597e-05C144.213 -0.286918 132.779 12.5544 132.779 12.5544L60.9842 43.3305C60.9842 43.3305 82.598 57.7142 106.577 57.0326C130.557 56.4587 154.536 40.9272 154.536 40.9272C150.558 44.5859 146.221 47.8859 141.704 50.7555C134.141 55.5979 122.994 62.162 108.943 63.0229C97.9032 63.8837 86.8634 62.162 76.5762 57.8935C69.5867 55.4903 67.221 56.4587 67.221 56.4587C67.221 56.4587 9.79939 84.5446 7.46955 85.6924C5.10386 86.8403 5.67736 91.3957 8.61655 89.8533C11.6274 88.4185 42.8831 75.0033 48.7257 72.8511C54.5682 70.7348 63.3499 70.4479 78.5476 77.012C89.8742 81.3522 101.774 84.0424 113.854 85.1185L119.409 93.225H124.714C124.714 93.225 123.281 91.3957 121.238 89.0642C119.159 86.6609 121.811 83.6479 121.811 83.6479C121.811 83.6479 156.544 73.2098 168.551 60.6913C180.559 48.137 176.473 32.8924 176.114 26.3283C175.541 19.1903 187.835 14.9218 187.835 14.9218L176.401 9.50547C171.275 3.65873 164.107 0.286995 156.472 3.89597e-05ZM166.759 16.3924C164.393 16.5 162.422 14.5631 162.422 12.2316C162.422 9.72069 164.393 7.78373 166.759 7.78373C169.125 7.78373 171.096 9.8283 171.096 12.2316C170.989 14.6348 169.125 16.4642 166.759 16.3924Z" fill="#29344F"/>
</g>
<defs>
<clipPath id="clip0_1_44">
<rect width="633" height="99" fill="white" transform="translate(6)"/>
</clipPath>
</defs>
</svg>
